<?xml version="1.0" encoding="UTF-8"?>
<svg id="_1" data-name="1" xmlns="http://www.w3.org/2000/svg" viewBox="0 0 832.13 1003.01">
  <defs>
    <style>
      .cls-1 {
        fill: #ff553a;
      }

      .cls-2 {
        fill: #f6e5e7;
      }
    </style>
  </defs>
  <g id="_2" data-name="2">
    <g>
      <path class="cls-2" d="M86.22,716.39c0-6.88,9.81-9.29,24.44-9.29,20.23,0,28.14,4.77,32.34,13.14,1.14,2.28,3.48,3.72,6.04,3.72h26.33c4.39,0,7.59-4.1,6.58-8.37-4.48-19.06-24.69-40.51-71.81-40.51s-65.74,17.38-65.74,40.27c0,55.59,98.96,29.95,98.96,49.05,0,6.71-8.78,10.33-26.68,10.33-21,0-30.98-4.47-35.63-18.07,0,0,0,0,0,0h-31.1c-4.15,0-7.33,3.7-6.7,7.8,3.79,24.35,25.99,42.28,71.35,42.28,54.04,0,70.56-22.89,70.56-41.31,0-56.97-98.96-27.71-98.96-49.05Z"/>
      <path class="cls-2" d="M337.65,793.13c19.42-12.6,29.79-32.44,29.79-52.13,0-33.04-28.91-65.92-79.86-65.92s-80.03,32.87-80.03,65.92,28.91,65.74,80.03,65.74c4.09,0,8.18-.16,12.12-.61,.38-.04,.75,.13,.95,.45l9.64,15.11c.97,1.52,2.65,2.44,4.45,2.44h32.01c4.17,0,6.69-4.62,4.43-8.13l-13.84-21.5c-.3-.46-.16-1.08,.3-1.38Zm-50.06-18.39c-21.34,0-38.21-13.42-38.21-33.73s16.87-33.91,38.21-33.91,38.04,13.42,38.04,33.91-16.69,33.73-38.04,33.73Z"/>
      <path class="cls-2" d="M520.58,676.29h-26.95c-3.63,0-6.57,2.94-6.57,6.57v63.64c0,20.14-11.36,27.36-25.99,27.36s-25.99-7.23-25.99-27.36v-63.64c0-3.63-2.94-6.57-6.57-6.57h-26.95c-3.63,0-6.57,2.94-6.57,6.57v58.65c0,44.4,26.33,65.23,66.09,65.23s66.09-20.82,66.09-65.23v-58.65c0-3.63-2.94-6.57-6.57-6.57Z"/>
      <rect class="cls-2" x="560.72" y="676.29" width="40.1" height="129.08" rx="6.5" ry="6.5"/>
      <path class="cls-2" d="M642.41,805.37h73.89c43.49,0,76.98-43.09,60.07-88.88-8.97-24.29-32.4-40.2-58.29-40.2h-75.67c-3.49,0-6.31,2.83-6.31,6.31v116.46c0,3.49,2.83,6.31,6.31,6.31Zm33.79-91.78c0-2.83,2.29-5.12,5.12-5.12h26.72c23.55,0,41.25,24.84,28.35,49.39-5.17,9.84-15.54,15.84-26.65,15.84h-28.43c-2.83,0-5.12-2.29-5.12-5.12v-55Z"/>
      <path class="cls-2" d="M164.24,872.56h-41.61c-2.35,0-4.47,1.42-5.36,3.59l-27.43,66.47c-1.78,4.31-7.87,4.31-9.65,0l-27.43-66.47c-.9-2.17-3.01-3.59-5.36-3.59H5.8c-3.2,0-5.8,2.6-5.8,5.8v117.48c0,3.2,2.6,5.8,5.8,5.8h28.5c3.2,0,5.8-2.6,5.8-5.8v-34.52c0-5.71,7.86-7.27,10.04-1.99l16.01,38.73c.9,2.17,3.01,3.58,5.36,3.58h27.01c2.35,0,4.46-1.41,5.36-3.58l16.01-38.73c2.18-5.28,10.04-3.72,10.04,1.99v34.52c0,3.2,2.6,5.8,5.8,5.8h28.5c3.2,0,5.8-2.6,5.8-5.8v-117.48c0-3.2-2.6-5.8-5.8-5.8Z"/>
      <path class="cls-2" d="M307.65,876.86c-.88-2.58-3.3-4.31-6.02-4.31h-57.16c-2.72,0-5.14,1.73-6.02,4.31l-39.72,116.36c-1.41,4.13,1.66,8.42,6.02,8.42h25.99c2.71,0,5.12-1.72,6.01-4.28l4.96-14.33c.89-2.56,3.3-4.28,6.01-4.28h50.63c2.73,0,5.15,1.74,6.03,4.32l4.82,14.25c.87,2.58,3.3,4.32,6.02,4.32h26.13c4.36,0,7.43-4.29,6.02-8.42l-39.72-116.36Zm-24.63,69.87h-19.95c-4.35,0-7.42-4.28-6.02-8.4l9.98-29.44c.87-2.58,3.3-4.32,6.02-4.32s5.15,1.74,6.02,4.32l9.98,29.44c1.4,4.12-1.67,8.4-6.02,8.4Z"/>
      <path class="cls-2" d="M464.71,924.6c-1.33-2.06-1.07-4.76,.61-6.53l34.46-36.26c3.32-3.49,.84-9.25-3.97-9.25h-32.73c-1.5,0-2.93,.61-3.97,1.7l-33.95,35.65c-3.25,3.42-9.01,1.11-9.01-3.6v-28.27c0-3.03-2.45-5.48-5.48-5.48h-29.15c-3.03,0-5.48,2.45-5.48,5.48v118.12c0,3.03,2.45,5.48,5.48,5.48h29.15c3.03,0,5.48-2.45,5.48-5.48v-24.33c0-1.41,.55-2.77,1.52-3.79l13.47-14.05c2.45-2.56,6.64-2.15,8.56,.82l28.53,44.31c1.01,1.57,2.74,2.51,4.61,2.51h31.53c4.34,0,6.96-4.8,4.6-8.45l-44.26-68.59Z"/>
      <path class="cls-2" d="M656.59,969.62h-66.46c-3.51,0-6.36-2.85-6.36-6.36v-4.15c0-3.51,2.85-6.36,6.36-6.36h59.92c3.51,0,6.36-2.85,6.36-6.36v-19.3c0-3.51-2.85-6.36-6.36-6.36h-59.92c-3.51,0-6.36-2.85-6.36-6.36v-3.29c0-3.51,2.85-6.36,6.36-6.36h65.25c3.51,0,6.36-2.85,6.36-6.36v-19.47c0-3.51-2.85-6.36-6.36-6.36h-105.35c-3.51,0-6.36,2.85-6.36,6.36v116.37c0,3.51,2.85,6.36,6.36,6.36h106.56c3.51,0,6.36-2.85,6.36-6.36v-19.3c0-3.51-2.85-6.36-6.36-6.36Z"/>
      <path class="cls-2" d="M733.17,912.66c0-6.88,9.81-9.29,24.44-9.29,20.37,0,28.25,4.83,32.42,13.31,1.08,2.19,3.32,3.55,5.76,3.55h26.92c4.09,0,7.2-3.76,6.33-7.76-4.19-19.21-24.32-41.12-71.95-41.12s-65.74,17.38-65.74,40.27c0,55.59,98.96,29.95,98.96,49.05,0,6.71-8.78,10.33-26.68,10.33-19.03,0-29.01-3.68-34.17-14.48-1.06-2.22-3.36-3.59-5.83-3.59h-27.08c-3.96,0-6.97,3.53-6.39,7.44,3.62,24.53,25.82,42.64,71.41,42.64,54.04,0,70.56-22.89,70.56-41.31,0-56.97-98.96-27.71-98.96-49.05Z"/>
    </g>
    <g>
      <path class="cls-1" d="M673.03,422.51c-19.57,46.48-69.63,64.44-88.93,69.77-5.06,1.4-8.95,5.47-10.13,10.58-5.8,25.04-2.48,48.07,1.24,62.8,2.3,9.12-4.62,17.89-13.87,17.89-.3,0-.61-.01-.91-.03-21.81-1.35-38.5-11.72-50.04-22.33-2.86-2.62-6.23-3.78-9.52-3.78-8.05,0-15.65,6.9-14.35,16.28,.04,.25,.08,.5,.11,.75,1.35,8.78-5.56,16.47-14.21,16.47-.53,0-1.06-.03-1.6-.09-27.67-2.98-49.43-31.48-53.7-37.43-.39-.53-.73-1.1-1.04-1.69-3.28,4.64-26.19,35.61-54.79,38.69-.54,.06-1.07,.09-1.6,.09-8.64,0-15.54-7.68-14.21-16.47,.05-.24,.08-.5,.11-.75,1.31-9.37-6.29-16.27-14.34-16.28-3.29,0-6.66,1.16-9.51,3.78-11.55,10.61-28.24,20.98-50.05,22.33-.31,.02-.61,.03-.91,.03-9.25,0-16.17-8.76-13.86-17.89,3.71-14.72,7.03-37.75,1.24-62.8-1.19-5.11-5.08-9.18-10.13-10.57-19.31-5.34-69.36-23.3-88.95-69.78-4.82-11.44,3.66-24.08,16.07-24.08h42.95c8.39,0,14.92-7.19,14.24-15.55-1.22-14.76-.2-39.54,12.17-72.25,2.81-7.45-.94-15.7-8.37-18.55-14.83-5.68-35.62-19.56-35.07-52.65,.86-51.29,145.19-179.94,214.99-209h.85c69.8,29.06,213.28,158.14,214.13,209.43,.56,33.09-20.23,46.96-35.06,52.65-7.43,2.84-11.18,11.1-8.37,18.55,12.37,32.71,13.39,57.48,12.17,72.25-.69,8.36,5.85,15.55,14.24,15.55h42.94c12.41,0,20.89,12.64,16.07,24.08Z"/>
      <path class="cls-2" d="M696.49,389.64c-8.82-13.29-23.59-21.21-39.53-21.21h-26.86c-.43-14.6-2.89-33.12-9.74-54.86,8.48-4.94,15.91-11.11,21.9-18.25,12.65-15.07,19.14-34.57,18.78-56.39-.32-18.81-10.1-40.94-29.91-67.65-15.06-20.31-36.05-43.37-60.68-66.69-23.31-22.06-48.58-43.18-73.07-61.05-18.24-13.31-45-31.27-68.94-41.23l-5.53-2.31h-12.85l-5.54,2.31c-36.88,15.35-92.76,55.39-142.35,101.99-24.77,23.27-45.86,46.28-60.99,66.54-19.94,26.68-29.79,48.82-30.11,67.66-.36,21.83,6.14,41.33,18.8,56.4,5.99,7.13,13.41,13.3,21.89,18.24-6.85,21.74-9.31,40.26-9.74,54.86h-26.87c-15.93,0-30.71,7.93-39.52,21.21-8.79,13.24-10.36,29.89-4.19,44.52,21.77,51.67,71.1,74.84,99.05,84.13,2.07,15.78-.17,30.15-2.66,40.03-3.38,13.34-.47,27.25,8,38.12,8.46,10.87,21.2,17.11,34.95,17.11,.91,0,1.84-.03,2.76-.09,16.75-1.03,32.91-6.06,47.71-14.74,1.36,2.36,2.95,4.6,4.76,6.71,8.45,9.83,20.73,15.48,33.68,15.48,1.61,0,3.23-.09,4.84-.26,20.6-2.23,38.11-12.85,51.3-24.13,13.12,11.35,30.82,22.3,51.78,24.56,1.58,.17,3.21,.26,4.81,.26,12.96,0,25.25-5.65,33.7-15.5,1.8-2.1,3.39-4.34,4.75-6.69,14.79,8.68,30.95,13.7,47.7,14.74,.93,.06,1.85,.09,2.77,.09,13.74,0,26.47-6.23,34.94-17.1,8.46-10.86,11.39-24.76,8.01-38.13-2.49-9.88-4.72-24.24-2.66-40.03,27.98-9.31,77.29-32.47,99.05-84.14,6.16-14.62,4.6-31.27-4.19-44.51Zm-112.39,102.64c-5.06,1.4-8.95,5.47-10.13,10.58-5.8,25.04-2.48,48.07,1.24,62.8,2.3,9.12-4.62,17.89-13.87,17.89-.3,0-.61-.01-.91-.03-21.81-1.35-38.5-11.72-50.04-22.33-2.86-2.62-6.23-3.78-9.52-3.78-8.05,0-15.65,6.9-14.35,16.28,.04,.25,.08,.5,.11,.75,1.35,8.78-5.56,16.47-14.21,16.47-.53,0-1.06-.03-1.6-.09-27.67-2.98-49.43-31.48-53.7-37.43-.39-.53-.73-1.1-1.04-1.69-3.28,4.64-26.19,35.61-54.79,38.69-.54,.06-1.07,.09-1.6,.09-8.64,0-15.54-7.68-14.21-16.47,.05-.24,.08-.5,.11-.75,1.31-9.37-6.29-16.27-14.34-16.28-3.29,0-6.66,1.16-9.51,3.78-11.55,10.61-28.24,20.98-50.05,22.33-.31,.02-.61,.03-.91,.03-9.25,0-16.17-8.76-13.86-17.89,3.71-14.72,7.03-37.75,1.24-62.8-1.19-5.11-5.08-9.18-10.13-10.57-19.31-5.34-69.36-23.3-88.95-69.78-4.82-11.44,3.66-24.08,16.07-24.08h42.95c8.39,0,14.92-7.19,14.24-15.55-1.22-14.76-.2-39.54,12.17-72.25,2.81-7.45-.94-15.7-8.37-18.55-14.83-5.68-35.62-19.56-35.07-52.65,.86-51.29,145.19-179.94,214.99-209h.85c69.8,29.06,213.28,158.14,214.13,209.43,.56,33.09-20.23,46.96-35.06,52.65-7.43,2.84-11.18,11.1-8.37,18.55,12.37,32.71,13.39,57.48,12.17,72.25-.69,8.36,5.85,15.55,14.24,15.55h42.94c12.41,0,20.89,12.64,16.07,24.08-19.57,46.48-69.63,64.44-88.93,69.77Z"/>
    </g>
    <path class="cls-2" d="M369.03,395.64h94.99c5.46,0,9.58,4.94,8.6,10.31-2.64,14.53-13.16,39.27-54.22,39.27s-53.41-23.69-57.74-38.32c-1.66-5.62,2.51-11.26,8.37-11.26Z"/>
    <ellipse class="cls-2" cx="324.37" cy="345.21" rx="58.55" ry="39.75" transform="translate(-97.86 130.48) rotate(-19.83)"/>
    <path class="cls-1" d="M307.35,364.66c-4.79,0-9.35-2.79-11.38-7.46-2.73-6.28,.15-13.57,6.42-16.3,.86-.37,21.21-9.16,41.19-12.8,6.73-1.22,13.19,3.24,14.41,9.98,1.22,6.74-3.24,13.19-9.98,14.41-17.11,3.11-35.56,11.06-35.75,11.14-1.61,.7-3.28,1.03-4.93,1.03Z"/>
    <ellipse class="cls-2" cx="509.01" cy="345.21" rx="39.75" ry="58.55" transform="translate(11.61 706.95) rotate(-70.17)"/>
    <path id="_1-2" data-name="1" class="cls-1" d="M526.03,364.66c-1.65,0-3.32-.33-4.93-1.03h0c-.18-.08-18.64-8.03-35.75-11.14-6.74-1.22-11.2-7.68-9.98-14.41,1.22-6.74,7.68-11.2,14.41-9.98,19.99,3.63,40.34,12.42,41.19,12.8,6.28,2.73,9.15,10.03,6.42,16.31-2.03,4.67-6.59,7.46-11.37,7.46Z"/>
  </g>
</svg>